<svg width="18" height="24" viewBox="0 0 18 24" fill="none" xmlns="http://www.w3.org/2000/svg">
<path d="M15.75 8H14.625V5.71429C14.625 2.56 12.105 0 9 0C5.895 0 3.375 2.56 3.375 5.71429V8H2.25C1.0125 8 0 9.02857 0 10.2857V21.7143C0 22.9714 1.0125 24 2.25 24H15.75C16.9875 24 18 22.9714 18 21.7143V10.2857C18 9.02857 16.9875 8 15.75 8ZM9 18.2857C7.7625 18.2857 6.75 17.2571 6.75 16C6.75 14.7429 7.7625 13.7143 9 13.7143C10.2375 13.7143 11.25 14.7429 11.25 16C11.25 17.2571 10.2375 18.2857 9 18.2857ZM12.4875 8H5.5125V5.71429C5.5125 3.76 7.07625 2.17143 9 2.17143C10.9237 2.17143 12.4875 3.76 12.4875 5.71429V8Z" fill="#313862"/>
</svg>
